<svg id="Layer_1" data-name="Layer 1" xmlns="http://www.w3.org/2000/svg" viewBox="0 0 47.872 618.319">
  <title>blakehauseWordmarkWhite</title>
  <g>
    <path d="M47.872,618.319H0V579.355a27.9,27.9,0,0,1,.714-6.766,12.48,12.48,0,0,1,2.04-4.556,7.934,7.934,0,0,1,3.264-2.55,11.026,11.026,0,0,1,4.318-.816h4.42a8.831,8.831,0,0,1,5.27,1.53,6.544,6.544,0,0,1,2.686,4.114,9.8,9.8,0,0,1,2.55-4.488,7.229,7.229,0,0,1,5.27-1.768h7a10.866,10.866,0,0,1,3.91.714,7.918,7.918,0,0,1,3.3,2.448,12.961,12.961,0,0,1,2.278,4.658,26.764,26.764,0,0,1,.85,7.344Zm-37.06-44.608a3.284,3.284,0,0,0-2.856,1.224q-.882,1.224-.884,4.42v29.92H19.516v-29.92q0-3.195-.884-4.42a3.28,3.28,0,0,0-2.856-1.224Zm19.856-.612a3.292,3.292,0,0,0-3.162,1.7,9.28,9.28,0,0,0-.918,4.42v30.056H40.8V579.219a8.511,8.511,0,0,0-1.02-4.42q-1.02-1.7-3.944-1.7Z" style="fill: #fff"/>
    <path d="M47.872,555.556H0v-9.112H40.8V507.616h7.072Z" style="fill: #fff"/>
    <path d="M47.872,445.873,9.316,470.557l38.556,25.092v10.064L0,473.888v-6.6l47.872-31.62Z" style="fill: #fff"/>
    <path d="M47.872,388.548,26.52,406.636v15.572H47.872v9.044H0v-9.044H19.448V406.84L0,388.82V378.076L22.3,399.36l25.568-21.216Z" style="fill: #fff"/>
    <path d="M47.872,372.841H0V323.609H7.072V363.8H19.04V325.649h7.072V363.8H40.8V323.609h7.072Z" style="fill: #fff"/>
    <path d="M47.872,267.713H26.112v39.168h21.76v9.044H0v-9.044H19.04V267.713H0v-9.044H47.872Z" style="fill: #fff"/>
    <path d="M47.872,194.411,9.316,219.1l38.556,25.092v10.064L0,222.426v-6.6l47.872-31.62Z" style="fill: #fff"/>
    <path d="M47.872,167.278a24.556,24.556,0,0,1-.85,6.936,12.678,12.678,0,0,1-2.38,4.658A8.957,8.957,0,0,1,41,181.49a12.892,12.892,0,0,1-4.692.816H0v-9.044H36.38q4.422,0,4.42-5.984V137.562q0-5.983-4.42-5.984H0v-9.044H36.312a19.958,19.958,0,0,1,4.692.51,7.838,7.838,0,0,1,3.638,1.972,9.656,9.656,0,0,1,2.38,4.012,21.412,21.412,0,0,1,.85,6.63Z" style="fill: #fff"/>
    <path d="M47.872,113.287H40.8V71.671q0-5.984-4.42-5.984H30.328q-4.419,0-4.42,5.984V99.823a24.556,24.556,0,0,1-.85,6.936,12.678,12.678,0,0,1-2.38,4.658,8.957,8.957,0,0,1-3.638,2.618,12.9,12.9,0,0,1-4.692.816H11.56a12.908,12.908,0,0,1-4.692-.816,8.964,8.964,0,0,1-3.638-2.618,12.716,12.716,0,0,1-2.38-4.658A24.592,24.592,0,0,1,0,99.823V59.3H7.072V99.823q0,5.985,4.42,5.984h2.924q4.421,0,4.42-5.984V71.671a24.592,24.592,0,0,1,.85-6.936,12.7,12.7,0,0,1,2.38-4.658A8.983,8.983,0,0,1,25.7,57.459a12.908,12.908,0,0,1,4.692-.816h5.916A12.892,12.892,0,0,1,41,57.459a8.967,8.967,0,0,1,3.638,2.618,12.709,12.709,0,0,1,2.38,4.658,24.556,24.556,0,0,1,.85,6.936Z" style="fill: #fff"/>
    <path d="M47.872,49.232H0V0H7.072V40.188H19.04V2.04h7.072V40.188H40.8V0h7.072Z" style="fill: #fff"/>
  </g>
</svg>
