<?xml version="1.0" encoding="utf-8"?>
<!-- Generator: Adobe Illustrator 23.0.1, SVG Export Plug-In . SVG Version: 6.00 Build 0)  -->
<svg version="1.1" id="Layer_1" xmlns="http://www.w3.org/2000/svg" xmlns:xlink="http://www.w3.org/1999/xlink" x="0px" y="0px"
	 viewBox="0 0 300.319 23.252" style="enable-background:new 0 0 300.319 23.252;" xml:space="preserve">
<style type="text/css">
	.Drop_x0020_Shadow{fill:none;}
	.Outer_x0020_Glow_x0020_5_x0020_pt{fill:none;}
	.Blue_x0020_Neon{fill:none;stroke:#8AACDA;stroke-width:7;stroke-linecap:round;stroke-linejoin:round;}
	.Chrome_x0020_Highlight{fill:url(#SVGID_1_);stroke:#FFFFFF;stroke-width:0.3629;stroke-miterlimit:1;}
	.Jive_GS{fill:#FFDD00;}
	.Alyssa_GS{fill:#A6D0E4;}
</style>
<linearGradient id="SVGID_1_" gradientUnits="userSpaceOnUse" x1="-810.7766" y1="-528.5336" x2="-810.7766" y2="-529.5336">
	<stop  offset="0" style="stop-color:#656565"/>
	<stop  offset="0.618" style="stop-color:#1B1B1B"/>
	<stop  offset="0.6292" style="stop-color:#545454"/>
	<stop  offset="0.9831" style="stop-color:#3E3E3E"/>
</linearGradient>
<g>
	<path d="M0,23.252L0,0l18.925,0c1.277,0,2.373,0.116,3.286,0.347c0.914,0.231,1.651,0.562,2.213,0.991
		c0.561,0.429,0.974,0.958,1.238,1.585s0.396,1.327,0.396,2.097v2.147c0,1.013-0.248,1.866-0.743,2.56
		c-0.495,0.694-1.162,1.129-1.998,1.305c0.88,0.243,1.607,0.656,2.18,1.239c0.572,0.584,0.859,1.437,0.859,2.56v3.402
		c0,0.66-0.116,1.294-0.347,1.899c-0.231,0.606-0.628,1.139-1.189,1.602c-0.561,0.462-1.316,0.831-2.263,1.106
		c-0.947,0.276-2.136,0.413-3.567,0.413L0,23.252z M21.666,5.251c0-0.638-0.198-1.101-0.594-1.387
		c-0.397-0.286-1.112-0.429-2.147-0.429l-14.532,0l0,6.044l14.532,0c1.035,0,1.75-0.143,2.147-0.429
		c0.396-0.286,0.594-0.748,0.594-1.387V5.251z M21.964,14.896c0-0.727-0.276-1.238-0.826-1.536
		c-0.551-0.297-1.266-0.446-2.147-0.446l-14.598,0l0,6.903h14.598c0.88,0,1.596-0.165,2.147-0.495
		c0.55-0.33,0.826-0.969,0.826-1.916V14.896z"/>
	<path d="M30.484,23.252l0-23.252l4.426,0l0,19.817l18.859,0v3.435L30.484,23.252z"/>
	<path d="M83.758,23.252L71.768,4.525L59.581,23.252h-4.888L70.15,0l3.204,0l15.358,23.252L83.758,23.252z"/>
	<path d="M111.6,23.252l-8.785-10.371l-7.563,0l0,10.371h-4.393V0l4.393,0v9.446l7.464,0L111.468,0l5.218,0l-10.338,10.833
		l10.305,12.418H111.6z"/>
	<path d="M119.229,23.252V0l23.912,0v3.435l-19.519,0v5.813l18.529,0v3.435l-18.529,0v7.134l19.519,0v3.435L119.229,23.252z"/>
	<path d="M170.29,23.252V12.683l-19.024,0l0,10.569h-4.393V0l4.393,0v9.248l19.024,0V0l4.393,0v23.252L170.29,23.252z"/>
	<path d="M205.893,23.252L193.904,4.525l-12.187,18.727h-4.888L192.286,0l3.204,0l15.358,23.252L205.893,23.252z"/>
	<path d="M219.072,23.252c-1.321,0-2.444-0.137-3.369-0.413c-0.925-0.275-1.679-0.66-2.262-1.156
		c-0.584-0.495-1.007-1.084-1.271-1.767c-0.264-0.682-0.397-1.442-0.397-2.279V0l4.393,0v17.67c0,1.432,0.969,2.147,2.907,2.147
		l14.433,0c1.937,0,2.906-0.715,2.906-2.147V0l4.393,0v17.637c0,0.837-0.083,1.597-0.248,2.279
		c-0.165,0.683-0.485,1.272-0.958,1.767c-0.474,0.495-1.123,0.881-1.949,1.156c-0.826,0.276-1.899,0.413-3.22,0.413L219.072,23.252z
		"/>
	<path d="M245.295,23.252v-3.435l20.213,0c1.937,0,2.906-0.715,2.906-2.147V14.73c0-1.431-0.969-2.147-2.906-2.147l-13.673,0
		c-1.321,0-2.444-0.137-3.369-0.413c-0.925-0.275-1.679-0.66-2.262-1.156c-0.584-0.495-1.007-1.084-1.271-1.767
		c-0.264-0.682-0.397-1.442-0.397-2.279V5.615c0-0.836,0.132-1.596,0.397-2.279c0.264-0.682,0.688-1.272,1.271-1.767
		c0.583-0.495,1.338-0.88,2.262-1.156C249.391,0.138,250.514,0,251.835,0l19.684,0v3.435l-19.684,0
		c-1.938,0-2.906,0.716-2.906,2.147v1.42c0,1.431,0.969,2.147,2.906,2.147l13.673,0c1.321,0,2.444,0.138,3.369,0.413
		c0.925,0.276,1.679,0.66,2.263,1.156c0.583,0.495,1.007,1.085,1.271,1.767c0.264,0.683,0.396,1.442,0.396,2.279v2.873
		c0,0.837-0.132,1.597-0.396,2.279c-0.264,0.683-0.688,1.272-1.271,1.767c-0.584,0.495-1.338,0.881-2.263,1.156
		c-0.925,0.276-2.048,0.413-3.369,0.413L245.295,23.252z"/>
	<path d="M276.407,23.252V0l23.912,0v3.435l-19.519,0v5.813l18.529,0v3.435l-18.529,0v7.134l19.519,0v3.435L276.407,23.252z"/>
</g>
</svg>
