<?xml version="1.0" encoding="utf-8"?>
<!-- Generator: Adobe Illustrator 23.0.1, SVG Export Plug-In . SVG Version: 6.00 Build 0)  -->
<svg version="1.1" id="Layer_1" xmlns="http://www.w3.org/2000/svg" xmlns:xlink="http://www.w3.org/1999/xlink" x="0px" y="0px"
	 viewBox="0 0 47.872 618.319" style="enable-background:new 0 0 47.872 618.319;" xml:space="preserve">
<style type="text/css">
	.Drop_x0020_Shadow{fill:none;}
	.Outer_x0020_Glow_x0020_5_x0020_pt{fill:none;}
	.Blue_x0020_Neon{fill:none;stroke:#8AACDA;stroke-width:7;stroke-linecap:round;stroke-linejoin:round;}
	.Chrome_x0020_Highlight{fill:url(#SVGID_1_);stroke:#FFFFFF;stroke-width:0.3629;stroke-miterlimit:1;}
	.Jive_GS{fill:#FFDD00;}
	.Alyssa_GS{fill:#A6D0E4;}
</style>
<linearGradient id="SVGID_1_" gradientUnits="userSpaceOnUse" x1="-946.1423" y1="-173.7761" x2="-946.1423" y2="-174.7761">
	<stop  offset="0" style="stop-color:#656565"/>
	<stop  offset="0.618" style="stop-color:#1B1B1B"/>
	<stop  offset="0.6292" style="stop-color:#545454"/>
	<stop  offset="0.9831" style="stop-color:#3E3E3E"/>
</linearGradient>
<g>
	<path d="M47.872,618.319H0l0-38.964c0-2.629,0.238-4.885,0.714-6.766c0.476-1.881,1.156-3.4,2.04-4.556
		c0.884-1.156,1.972-2.006,3.264-2.55s2.732-0.816,4.318-0.816h4.42c2.086,0,3.842,0.51,5.27,1.53
		c1.428,1.02,2.324,2.392,2.686,4.114c0.5-1.812,1.35-3.309,2.55-4.488c1.202-1.178,2.958-1.768,5.27-1.768h7.004
		c1.36,0,2.664,0.238,3.91,0.714c1.247,0.476,2.346,1.292,3.298,2.448c0.952,1.156,1.711,2.709,2.278,4.658
		c0.567,1.949,0.85,4.397,0.85,7.344L47.872,618.319z M10.812,573.711c-1.314,0-2.266,0.408-2.856,1.224
		c-0.588,0.816-0.884,2.29-0.884,4.42l0,29.92h12.444l0-29.92c0-2.13-0.294-3.604-0.884-4.42c-0.588-0.816-1.541-1.224-2.856-1.224
		H10.812z M30.668,573.099c-1.496,0-2.55,0.567-3.162,1.7c-0.612,1.134-0.918,2.607-0.918,4.42l0,30.056H40.8l0-30.056
		c0-1.812-0.34-3.286-1.02-4.42c-0.68-1.133-1.995-1.7-3.944-1.7H30.668z"/>
	<path d="M47.872,555.556H0l0-9.112h40.8l0-38.828h7.072L47.872,555.556z"/>
	<path d="M47.872,445.873L9.316,470.557l38.556,25.092l0,10.064L0,473.888l0-6.596l47.872-31.62V445.873z"/>
	<path d="M47.872,388.548L26.52,406.636l0,15.572h21.352v9.044H0l0-9.044h19.448l0-15.368L0,388.82l0-10.744l22.304,21.284
		l25.568-21.216L47.872,388.548z"/>
	<path d="M47.872,372.841H0l0-49.232h7.072l0,40.188H19.04l0-38.148h7.072l0,38.148H40.8l0-40.188h7.072L47.872,372.841z"/>
	<path d="M47.872,267.713h-21.76l0,39.168h21.76l0,9.044H0l0-9.044h19.04l0-39.168H0l0-9.044h47.872V267.713z"/>
	<path d="M47.872,194.411L9.316,219.095l38.556,25.092v10.064L0,222.426l0-6.596l47.872-31.62L47.872,194.411z"/>
	<path d="M47.872,167.278c0,2.72-0.283,5.032-0.85,6.936c-0.566,1.904-1.36,3.458-2.38,4.658c-1.02,1.202-2.232,2.074-3.638,2.618
		c-1.404,0.544-2.968,0.816-4.692,0.816l-36.312,0l0-9.044l36.38,0c2.948,0,4.42-1.995,4.42-5.984l0-29.716
		c0-3.989-1.473-5.984-4.42-5.984l-36.38,0l0-9.044l36.312,0c1.724,0,3.288,0.17,4.692,0.51c1.406,0.34,2.618,0.998,3.638,1.972
		c1.02,0.975,1.813,2.312,2.38,4.012c0.567,1.7,0.85,3.91,0.85,6.63L47.872,167.278z"/>
	<path d="M47.872,113.287H40.8l0-41.616c0-3.989-1.473-5.984-4.42-5.984h-6.052c-2.946,0-4.42,1.995-4.42,5.984l0,28.152
		c0,2.72-0.283,5.032-0.85,6.936c-0.566,1.904-1.36,3.458-2.38,4.658c-1.02,1.202-2.232,2.074-3.638,2.618
		c-1.405,0.544-2.969,0.816-4.692,0.816H11.56c-1.722,0-3.286-0.272-4.692-0.816c-1.405-0.544-2.618-1.416-3.638-2.618
		c-1.02-1.201-1.812-2.754-2.38-4.658C0.284,104.855,0,102.543,0,99.823l0-40.528h7.072l0,40.528c0,3.99,1.474,5.984,4.42,5.984
		h2.924c2.947,0,4.42-1.994,4.42-5.984l0-28.152c0-2.72,0.284-5.032,0.85-6.936c0.567-1.904,1.36-3.457,2.38-4.658
		c1.02-1.2,2.233-2.074,3.638-2.618c1.406-0.544,2.97-0.816,4.692-0.816h5.916c1.724,0,3.288,0.272,4.692,0.816
		c1.406,0.544,2.618,1.417,3.638,2.618c1.02,1.202,1.813,2.754,2.38,4.658c0.567,1.904,0.85,4.216,0.85,6.936L47.872,113.287z"/>
	<path d="M47.872,49.232L0,49.232L0,0l7.072,0l0,40.188l11.968,0l0-38.148l7.072,0l0,38.148l14.688,0L40.8,0l7.072,0L47.872,49.232z
		"/>
</g>
</svg>
