<?xml version="1.0" encoding="utf-8"?>
<!-- Generator: Adobe Illustrator 23.0.1, SVG Export Plug-In . SVG Version: 6.00 Build 0)  -->
<svg version="1.1" id="Layer_1" xmlns="http://www.w3.org/2000/svg" xmlns:xlink="http://www.w3.org/1999/xlink" x="0px" y="0px"
	 viewBox="0 0 311 311" style="enable-background:new 0 0 311 311;" xml:space="preserve">
<style type="text/css">
	.Drop_x0020_Shadow{fill:none;}
	.Outer_x0020_Glow_x0020_5_x0020_pt{fill:none;}
	.Blue_x0020_Neon{fill:none;stroke:#8AACDA;stroke-width:7;stroke-linecap:round;stroke-linejoin:round;}
	.Chrome_x0020_Highlight{fill:url(#SVGID_1_);stroke:#FFFFFF;stroke-width:0.3629;stroke-miterlimit:1;}
	.Jive_GS{fill:#FFDD00;}
	.Alyssa_GS{fill:#A6D0E4;}
	.st0{fill:#FFFFFF;stroke:#000000;stroke-width:10;stroke-miterlimit:10;}
</style>
<linearGradient id="SVGID_1_" gradientUnits="userSpaceOnUse" x1="-805" y1="-384" x2="-805" y2="-385">
	<stop  offset="0" style="stop-color:#656565"/>
	<stop  offset="0.618" style="stop-color:#1B1B1B"/>
	<stop  offset="0.6292" style="stop-color:#545454"/>
	<stop  offset="0.9831" style="stop-color:#3E3E3E"/>
</linearGradient>
<circle id="background_circle" class="st0" cx="155.5" cy="155.5" r="150.5"/>
<path id="path" d="M153.74,269.533c-19.79,0.339-39.497-4.513-56.985-14.21c-26.501-14.695-45.693-38.831-54.041-67.961
	c-8.348-29.131-4.852-59.767,9.843-86.268c14.41-25.987,38.016-45.02,66.471-53.595c1.851-0.558,3.739-1.074,5.61-1.536
	c1.075-0.261,2.155,0.39,2.419,1.462c0.264,1.072-0.39,2.155-1.462,2.419c-1.806,0.445-3.628,0.944-5.414,1.482
	c-27.452,8.273-50.227,26.635-64.128,51.706c-14.177,25.567-17.55,55.125-9.496,83.229s26.57,51.389,52.137,65.566
	c22.369,12.404,48.508,16.59,73.592,11.785c2.028-0.388,4.063-0.836,6.049-1.335c1.069-0.268,2.156,0.382,2.425,1.453
	c0.268,1.071-0.382,2.157-1.453,2.425c-2.058,0.515-4.167,0.982-6.269,1.384C166.646,268.762,160.187,269.423,153.74,269.533z"/>
<polyline id="V" points="125,32 132.542,31.088 140.637,45.906 145.001,29.61 152.322,28.765 144.508,55.865 139.159,56.499 125,32 
	"/>
<polygon id="I" points="174.495,31.229 181.182,32.566 176.043,58.118 169.286,56.851 "/>
<path id="D" d="M215.673,46.363l-10.84-6.335l-12.67,22.736l10.84,5.913C216.799,72.266,225.949,56.499,215.673,46.363z
	 M203.284,62.412l-2.323-1.337l7.109-12.67l2.252,1.408C217.151,54.88,211.027,65.438,203.284,62.412z"/>
<polygon id="E" points="223.627,84.373 243.336,67.48 252.979,78.742 248.615,82.473 243.336,76.419 240.098,79.164 245.096,84.936 
	240.731,88.737 235.734,82.965 232.425,85.851 237.634,91.905 233.2,95.776 "/>
<path id="O" d="M258.698,102.671c-7.804,0-14.131,6.461-14.131,14.432c0,7.971,6.327,14.432,14.131,14.432
	c7.804,0,14.131-6.461,14.131-14.432C272.829,109.132,266.503,102.671,258.698,102.671z M258.678,124.486
	c-3.964,0-7.177-3.282-7.177-7.33c0-4.048,3.213-7.33,7.177-7.33s7.177,3.282,7.177,7.33
	C265.855,121.204,262.642,124.486,258.678,124.486z"/>
<path id="R" d="M250.656,173.698l-1.971,6.476l9.503,2.886l-11.333,3.238l-2.464,8.095l12.529-4.646
	c-0.122,2.566,0.785,4.787,3.062,6.546c4.778,2.549,10.101,1.689,12.283-4.153l3.308-10.84L250.656,173.698z M268.113,187.917
	c-1.267,4.435-7.743,3.168-6.124-1.76l0.493-1.76l6.053,1.83L268.113,187.917z"/>
<polygon id="E_1_" points="237.403,206.607 258.383,221.894 249.646,233.873 245.01,230.486 249.684,223.954 246.267,221.435 
	241.802,227.628 237.097,224.257 241.563,218.064 237.992,215.51 233.301,221.973 228.512,218.55 "/>
<polygon id="E_2_" points="217.113,230.107 232.281,251.174 220.244,259.831 216.895,255.167 223.373,250.418 220.911,246.96 
	214.738,251.452 211.319,246.782 217.493,242.29 214.897,238.75 208.425,243.428 204.942,238.683 "/>
<polygon id="L" points="176.465,250.634 190.684,245.989 198.779,270.766 192.303,272.878 185.898,253.591 178.296,256.265 "/>
</svg>
