<?xml version="1.0" encoding="utf-8"?>
<!-- Generator: Adobe Illustrator 23.0.1, SVG Export Plug-In . SVG Version: 6.00 Build 0)  -->
<svg version="1.1" id="VIDEO_REEL" xmlns="http://www.w3.org/2000/svg" xmlns:xlink="http://www.w3.org/1999/xlink" x="0px" y="0px"
	 viewBox="0 0 301 301" style="enable-background:new 0 0 301 301;" xml:space="preserve">
<style type="text/css">
	.Drop_x0020_Shadow{fill:none;}
	.Outer_x0020_Glow_x0020_5_x0020_pt{fill:none;}
	.Blue_x0020_Neon{fill:none;stroke:#8AACDA;stroke-width:7;stroke-linecap:round;stroke-linejoin:round;}
	.Chrome_x0020_Highlight{fill:url(#SVGID_1_);stroke:#FFFFFF;stroke-width:0.3629;stroke-miterlimit:1;}
	.Jive_GS{fill:#FFDD00;}
	.Alyssa_GS{fill:#A6D0E4;}
	.st0{fill:#FFFFFF;}
</style>
<linearGradient id="SVGID_1_" gradientUnits="userSpaceOnUse" x1="-834" y1="-401" x2="-834" y2="-402">
	<stop  offset="0" style="stop-color:#656565"/>
	<stop  offset="0.618" style="stop-color:#1B1B1B"/>
	<stop  offset="0.6292" style="stop-color:#545454"/>
	<stop  offset="0.9831" style="stop-color:#3E3E3E"/>
</linearGradient>
<circle id="background_circle" cx="150.5" cy="150.5" r="150.5"/>
<path id="path" class="st0" d="M148.74,264.533c-19.79,0.339-39.497-4.513-56.985-14.21c-26.501-14.695-45.693-38.831-54.041-67.961
	c-8.348-29.131-4.852-59.767,9.843-86.268c14.41-25.987,38.016-45.02,66.471-53.595c1.851-0.558,3.739-1.074,5.61-1.536
	c1.075-0.261,2.155,0.39,2.419,1.462c0.264,1.072-0.39,2.155-1.462,2.419c-1.806,0.445-3.628,0.944-5.414,1.482
	c-27.452,8.273-50.227,26.635-64.128,51.706c-14.177,25.567-17.55,55.125-9.496,83.229s26.57,51.389,52.137,65.566
	c22.369,12.404,48.508,16.59,73.592,11.785c2.028-0.388,4.063-0.836,6.049-1.335c1.069-0.268,2.156,0.382,2.425,1.453
	c0.268,1.071-0.382,2.157-1.453,2.425c-2.058,0.515-4.167,0.982-6.269,1.384C161.646,263.762,155.187,264.423,148.74,264.533z"/>
<polyline id="V" class="st0" points="120,27 127.542,26.088 135.637,40.906 140.001,24.61 147.322,23.765 139.508,50.865 
	134.159,51.499 120,27 "/>
<polygon id="I" class="st0" points="169.495,26.229 176.182,27.566 171.043,53.118 164.286,51.851 "/>
<path id="D" class="st0" d="M210.673,41.363l-10.84-6.335l-12.67,22.736l10.84,5.913C211.799,67.266,220.949,51.499,210.673,41.363z
	 M198.284,57.412l-2.323-1.337l7.109-12.67l2.252,1.408C212.151,49.88,206.027,60.438,198.284,57.412z"/>
<polygon id="E" class="st0" points="218.627,79.373 238.336,62.48 247.979,73.742 243.615,77.473 238.336,71.419 235.098,74.164 
	240.096,79.936 235.731,83.737 230.734,77.965 227.425,80.851 232.634,86.905 228.2,90.776 "/>
<path id="O" class="st0" d="M253.698,97.671c-7.804,0-14.131,6.461-14.131,14.432c0,7.971,6.327,14.432,14.131,14.432
	c7.804,0,14.131-6.461,14.131-14.432C267.829,104.132,261.503,97.671,253.698,97.671z M253.678,119.486
	c-3.964,0-7.177-3.282-7.177-7.33c0-4.048,3.213-7.33,7.177-7.33s7.177,3.282,7.177,7.33
	C260.855,116.204,257.642,119.486,253.678,119.486z"/>
<path id="R" class="st0" d="M245.656,168.698l-1.971,6.476l9.503,2.886l-11.333,3.238l-2.464,8.095l12.529-4.646
	c-0.122,2.566,0.785,4.787,3.062,6.546c4.778,2.549,10.101,1.689,12.283-4.153l3.308-10.84L245.656,168.698z M263.113,182.917
	c-1.267,4.435-7.743,3.168-6.124-1.76l0.493-1.76l6.053,1.83L263.113,182.917z"/>
<polygon id="E_1_" class="st0" points="232.403,201.607 253.383,216.894 244.646,228.873 240.01,225.486 244.684,218.954 
	241.267,216.435 236.802,222.628 232.097,219.257 236.563,213.064 232.992,210.51 228.301,216.973 223.512,213.55 "/>
<polygon id="E_2_" class="st0" points="212.113,225.107 227.281,246.174 215.244,254.831 211.895,250.167 218.373,245.418 
	215.911,241.96 209.738,246.452 206.319,241.782 212.493,237.29 209.897,233.75 203.425,238.428 199.942,233.683 "/>
<polygon id="L" class="st0" points="171.465,245.634 185.684,240.989 193.779,265.766 187.303,267.878 180.898,248.591 
	173.296,251.265 "/>
</svg>
